<svg width="112" height="114" viewBox="0 0 112 114" fill="none" xmlns="http://www.w3.org/2000/svg">
<g filter="url(#filter0_d_363_255)">
<path d="M56 11L81.2748 19.0213L96.8954 40.0213V65.9787L81.2748 86.9787L56 95L30.7252 86.9787L15.1046 65.9787V40.0213L30.7252 19.0213L56 11Z" fill="#00224D"/>
</g>
<path d="M54.5191 49.6156C53.8436 49.9982 53.2989 50.5688 52.9539 51.2552C52.6089 51.9416 52.4791 52.713 52.5809 53.4718C52.6827 54.2305 53.0116 54.9427 53.5259 55.5181C54.0402 56.0935 54.7169 56.5063 55.4704 56.7044C56.2239 56.9024 57.0203 56.8768 57.7589 56.6308C58.4976 56.3848 59.1452 55.9294 59.6201 55.3222C60.0949 54.715 60.3756 53.9833 60.4266 53.2196C60.4775 52.4559 60.2966 51.6945 59.9065 51.0317C59.3834 50.1431 58.522 49.4946 57.5117 49.229C56.5014 48.9635 55.425 49.1025 54.5191 49.6156ZM72.1962 53.8139C71.9372 53.5235 71.664 53.2324 71.3765 52.9405C71.5773 52.7334 71.7717 52.5265 71.9595 52.3198C75.5057 48.4105 77.0024 44.4901 75.6156 42.1331C74.2858 39.8733 70.3301 39.1998 65.3779 40.1446C64.8901 40.2382 64.405 40.3438 63.9226 40.4614C63.8303 40.1491 63.7321 39.8385 63.628 39.5298C61.948 34.5626 59.2341 31.3317 56.4604 31.3334C53.8006 31.3346 51.23 34.3604 49.5901 39.0413C49.4288 39.5031 49.2795 39.9687 49.1424 40.4382C48.8198 40.3605 48.4959 40.2888 48.1707 40.223C42.9458 39.1705 38.7374 39.8637 37.3533 42.222C36.0261 44.4835 37.4141 48.1799 40.7288 51.9115C41.0575 52.2808 41.3955 52.6417 41.7429 52.9944C41.3334 53.4082 40.9457 53.8218 40.5843 54.2331C37.3499 57.9121 36.0413 61.5481 37.3664 63.7998C38.7349 66.1257 42.884 66.8859 47.9341 65.9109C48.3434 65.8313 48.7504 65.7417 49.1552 65.6422C49.3034 66.15 49.4661 66.6534 49.6431 67.1524C51.2758 71.7394 53.832 74.6678 56.4823 74.6668C59.2194 74.6652 61.9633 71.5189 63.6257 66.7395C63.757 66.3619 63.8813 65.9696 63.9991 65.5658C64.5219 65.6934 65.0481 65.8066 65.5777 65.9055C70.4434 66.8087 74.3061 66.0983 75.6288 63.845C76.9946 61.5174 75.5864 57.6136 72.1962 53.8139ZM38.9883 43.1457C39.8404 41.694 43.2797 41.1277 47.7909 42.0364C48.0792 42.0945 48.3725 42.1595 48.6707 42.2314C48.2302 44.1429 47.9195 46.0811 47.7404 48.033C46.1126 49.1565 44.5607 50.3822 43.0943 51.7024C42.7712 51.3746 42.4568 51.0389 42.151 50.6952C39.3109 47.4978 38.1885 44.5085 38.9883 43.1457ZM47.5714 55.5566C46.4439 54.7189 45.3961 53.8608 44.445 52.9977C45.3954 52.14 46.4439 51.2848 47.5691 50.4494C47.5286 51.3004 47.5086 52.152 47.509 53.0043C47.5096 53.8554 47.5304 54.7061 47.5714 55.5566ZM47.57 64.0945C45.656 64.5121 43.6799 64.5805 41.7407 64.2963C41.209 64.2557 40.6916 64.1086 40.2202 63.864C39.7488 63.6194 39.3336 63.2826 39.0001 62.8743C38.1961 61.5079 39.2469 58.5887 42.013 55.4422C42.3608 55.0478 42.7199 54.6638 43.0905 54.2901C44.5571 55.6172 46.1115 56.8477 47.7437 57.9736C47.9252 59.9504 48.2396 61.9134 48.6849 63.8496C48.3154 63.9402 47.9438 64.0219 47.57 64.0945ZM63.2517 46.6759C62.511 46.218 61.7612 45.7749 61.0023 45.3464C60.2554 44.9246 59.4996 44.5186 58.7347 44.1285C60.0443 43.5883 61.3315 43.1269 62.5743 42.7509C62.8672 44.0473 63.0933 45.3573 63.2517 46.6759ZM51.3745 39.643C52.7795 35.6322 54.8584 33.1852 56.4614 33.1845C58.1686 33.1837 60.3868 35.8241 61.8372 40.1127C61.9314 40.3923 62.0205 40.6734 62.1044 40.9561C60.1989 41.536 58.3345 42.239 56.5236 43.0604C54.7202 42.2293 52.8617 41.5185 50.9608 40.9329C51.0879 40.4997 51.2258 40.0697 51.3745 39.643ZM50.4903 42.7279C51.7866 43.1283 53.0614 43.5925 54.31 44.1189C52.7629 44.9022 51.2558 45.7554 49.7887 46.6786C49.966 45.2962 50.2018 43.9718 50.4903 42.7279ZM49.792 59.326C50.5236 59.7855 51.2659 60.2281 52.0189 60.6536C52.787 61.0875 53.5654 61.5032 54.3539 61.9006C53.0958 62.4452 51.81 62.9261 50.5016 63.3413C50.2098 62.0801 49.9714 60.7324 49.792 59.326ZM61.8399 66.1413C61.2524 67.9767 60.3256 69.6904 59.1058 71.1967C58.8044 71.6281 58.4158 71.9945 57.9644 72.2729C57.5131 72.5513 57.0083 72.7359 56.4813 72.8153C54.8732 72.8162 52.8206 70.4645 51.4244 66.5418C51.2599 66.078 51.1087 65.61 50.9705 65.1378C52.8806 64.5333 54.7466 63.8023 56.5558 62.9501C58.3816 63.7769 60.2608 64.4851 62.1812 65.0702C62.0764 65.4299 61.9626 65.7869 61.8399 66.1413ZM62.6399 63.2721C61.3829 62.8908 60.0769 62.4217 58.7485 61.8735C59.4974 61.4869 60.2517 61.0785 61.0114 60.6484C61.791 60.2067 62.5508 59.754 63.2906 59.2902C63.1433 60.6276 62.9261 61.9566 62.6399 63.2721ZM63.6254 52.9963C63.6271 54.3122 63.5852 55.6269 63.4998 56.9406C62.4118 57.6631 61.2632 58.3685 60.0681 59.0454C58.8779 59.7196 57.6987 60.3391 56.542 60.8998C55.3247 60.3275 54.1309 59.7107 52.9606 59.0495C51.7968 58.3923 50.6598 57.6924 49.5494 56.95C49.4479 55.6367 49.3968 54.321 49.396 53.0029C49.3951 51.6858 49.4454 50.3704 49.5463 49.056C50.634 48.3272 51.7743 47.6224 52.9533 46.9546C54.1377 46.2836 55.3317 45.6667 56.5191 45.1075C57.7213 45.6808 58.9019 46.2952 60.0608 46.9506C61.2238 47.6064 62.364 48.2988 63.4815 49.0277C63.5775 50.3486 63.6254 51.6714 63.6254 52.9963ZM65.7382 41.9619C69.9812 41.1521 73.1803 41.6968 73.9817 43.0587C74.8355 44.5095 73.6119 47.7138 70.5504 51.0891C70.3812 51.2753 70.2056 51.4625 70.0237 51.6502C68.532 50.3272 66.9501 49.1054 65.2892 47.9932C65.1215 46.0626 64.8224 44.1452 64.3938 42.2538C64.8506 42.1436 65.2988 42.0462 65.7382 41.9619ZM65.4514 50.3787C66.5718 51.1813 67.6489 52.0403 68.6786 52.9524C67.6535 53.8794 66.5797 54.7533 65.4617 55.5704C65.4959 54.7125 65.5127 53.8542 65.5122 52.9955C65.5118 52.123 65.4915 51.2508 65.4514 50.3787ZM73.9935 62.921C73.1908 64.2885 70.0894 64.8588 65.9281 64.0864C65.4513 63.998 64.962 63.8929 64.4602 63.771C64.8785 61.8552 65.1643 59.914 65.3158 57.9605C66.974 56.8289 68.5508 55.5867 70.0352 54.2427C70.2949 54.5075 70.542 54.771 70.7764 55.0333C72.1037 56.4493 73.1541 58.0928 73.8749 59.882C74.1054 60.3536 74.2348 60.8667 74.2552 61.3894C74.2756 61.9122 74.1865 62.4334 73.9935 62.921Z" fill="#33D4F7"/>
<defs>
<filter id="filter0_d_363_255" x="0.104492" y="0" width="111.791" height="114" filterUnits="userSpaceOnUse" color-interpolation-filters="sRGB">
<feFlood flood-opacity="0" result="BackgroundImageFix"/>
<feColorMatrix in="SourceAlpha" type="matrix" values="0 0 0 0 0 0 0 0 0 0 0 0 0 0 0 0 0 0 127 0" result="hardAlpha"/>
<feOffset dy="4"/>
<feGaussianBlur stdDeviation="7.5"/>
<feComposite in2="hardAlpha" operator="out"/>
<feColorMatrix type="matrix" values="0 0 0 0 0 0 0 0 0 0 0 0 0 0 0 0 0 0 0.05 0"/>
<feBlend mode="normal" in2="BackgroundImageFix" result="effect1_dropShadow_363_255"/>
<feBlend mode="normal" in="SourceGraphic" in2="effect1_dropShadow_363_255" result="shape"/>
</filter>
</defs>
</svg>
