<svg width="49" height="49" viewBox="0 0 49 49" fill="none" xmlns="http://www.w3.org/2000/svg">
<path d="M30.5746 6.16351L32.5343 2.62818C32.5594 2.58282 32.5754 2.53296 32.5813 2.48143C32.5871 2.42991 32.5828 2.37773 32.5685 2.32788C32.5542 2.27803 32.5302 2.23148 32.498 2.19089C32.4657 2.15031 32.4257 2.11648 32.3804 2.09133C32.2888 2.04055 32.1807 2.02824 32.0801 2.0571C31.9794 2.08597 31.8943 2.15364 31.8435 2.24524L29.8622 5.81975C28.1717 5.07865 26.3459 4.69602 24.5 4.69602C22.6542 4.69602 20.8284 5.07865 19.1378 5.81975L17.1564 2.24524C17.1056 2.15364 17.0206 2.08597 16.9199 2.0571C16.8192 2.02824 16.7112 2.04055 16.6196 2.09133C16.528 2.14211 16.4603 2.2272 16.4314 2.32788C16.4026 2.42856 16.4149 2.53658 16.4657 2.62818L18.4254 6.16353C16.56 7.08303 14.9838 8.49852 13.8698 10.2547C12.7558 12.0109 12.147 14.04 12.1102 16.1194H36.8899C36.853 14.04 36.2442 12.0109 35.1302 10.2547C34.0162 8.4985 32.4401 7.08301 30.5746 6.16351ZM18.7815 11.5854C18.5768 11.5854 18.3768 11.5247 18.2066 11.411C18.0365 11.2973 17.9039 11.1357 17.8255 10.9466C17.7472 10.7575 17.7267 10.5495 17.7667 10.3488C17.8066 10.1481 17.9051 9.96369 18.0498 9.81899C18.1945 9.67428 18.3789 9.57573 18.5796 9.53581C18.7803 9.49588 18.9884 9.51637 19.1775 9.59469C19.3665 9.673 19.5281 9.80562 19.6418 9.97578C19.7555 10.1459 19.8162 10.346 19.8162 10.5506C19.8159 10.825 19.7068 11.088 19.5128 11.282C19.3188 11.4759 19.0558 11.585 18.7815 11.5854ZM30.2185 11.5854C30.0138 11.5854 29.8138 11.5247 29.6436 11.411C29.4734 11.2973 29.3408 11.1357 29.2625 10.9466C29.1842 10.7575 29.1637 10.5495 29.2036 10.3488C29.2435 10.1481 29.3421 9.96369 29.4868 9.81899C29.6315 9.67428 29.8159 9.57573 30.0166 9.53581C30.2173 9.49588 30.4254 9.51637 30.6144 9.59469C30.8035 9.673 30.9651 9.80562 31.0788 9.97578C31.1925 10.1459 31.2532 10.346 31.2532 10.5506C31.2529 10.825 31.1438 11.088 30.9498 11.282C30.7558 11.4759 30.4928 11.585 30.2185 11.5854ZM12.11 35.0584C12.11 35.8528 12.4256 36.6147 12.9873 37.1765C13.5491 37.7382 14.3109 38.0538 15.1054 38.0538H17.0931V44.1807C17.0921 44.5461 17.1633 44.9081 17.3024 45.246C17.4415 45.5838 17.646 45.8909 17.904 46.1497C18.162 46.4084 18.4686 46.6137 18.806 46.7537C19.1435 46.8938 19.5053 46.9659 19.8707 46.9659C20.2361 46.9659 20.5979 46.8938 20.9354 46.7537C21.2729 46.6137 21.5794 46.4084 21.8375 46.1497C22.0955 45.8909 22.2999 45.5838 22.4391 45.246C22.5782 44.9081 22.6493 44.5461 22.6483 44.1807V38.0538H26.3516V44.1807C26.3506 44.5461 26.4217 44.9081 26.5609 45.246C26.7 45.5838 26.9045 45.8909 27.1625 46.1497C27.4205 46.4084 27.7271 46.6137 28.0645 46.7537C28.402 46.8938 28.7638 46.9659 29.1292 46.9659C29.4946 46.9659 29.8564 46.8938 30.1939 46.7537C30.5314 46.6137 30.8379 46.4084 31.0959 46.1497C31.354 45.8909 31.5584 45.5838 31.6975 45.246C31.8367 44.9081 31.9078 44.5461 31.9068 44.1807V38.0538H33.8947C34.6891 38.0538 35.451 37.7382 36.0127 37.1765C36.5745 36.6147 36.8901 35.8528 36.8901 35.0584V17.0996H12.11V35.0584ZM8.29761 16.6231C7.56121 16.6239 6.8552 16.9168 6.33448 17.4375C5.81377 17.9583 5.52086 18.6643 5.52003 19.4007V30.9738C5.51904 31.3392 5.59015 31.7012 5.7293 32.039C5.86844 32.3769 6.07288 32.684 6.3309 32.9427C6.58892 33.2014 6.89546 33.4067 7.23294 33.5468C7.57043 33.6868 7.93223 33.7589 8.29763 33.7589C8.66302 33.7589 9.02482 33.6868 9.36231 33.5468C9.69979 33.4067 10.0063 33.2014 10.2643 32.9427C10.5224 32.684 10.7268 32.3769 10.866 32.039C11.0051 31.7012 11.0762 31.3392 11.0752 30.9738V19.4007C11.0744 18.6643 10.7815 17.9583 10.2608 17.4375C9.74004 16.9168 9.03403 16.6239 8.29761 16.6231ZM40.7023 16.6231C39.9659 16.6239 39.2599 16.9168 38.7392 17.4375C38.2185 17.9583 37.9256 18.6643 37.9247 19.4007V30.9738C37.9237 31.3392 37.9949 31.7012 38.134 32.039C38.2731 32.3769 38.4776 32.684 38.7356 32.9427C38.9936 33.2014 39.3002 33.4067 39.6376 33.5468C39.9751 33.6868 40.3369 33.7589 40.7023 33.7589C41.0677 33.7589 41.4295 33.6868 41.767 33.5468C42.1045 33.4067 42.411 33.2014 42.6691 32.9427C42.9271 32.684 43.1315 32.3769 43.2707 32.039C43.4098 31.7012 43.4809 31.3392 43.4799 30.9738V19.4007C43.4791 18.6643 43.1862 17.9583 42.6655 17.4375C42.1448 16.9168 41.4387 16.6239 40.7023 16.6231Z" fill="#33F7C8"/>
</svg>
