<svg width="160" height="36" viewBox="0 0 160 36" fill="none" xmlns="http://www.w3.org/2000/svg">
<path d="M6.34646 0.580322C5.74643 3.22104 4.83869 4.89446 3.62325 5.60058C2.82417 6.06488 1.60392 6.43923 0 6.72941V10.4003H5.16082V34.5324H9.7072V0.580322H6.34646Z" fill="white"/>
<path d="M16.619 25.2087C16.9056 27.6521 18.0335 29.3429 20.0028 30.2812C21.1045 30.7764 22.3014 31.0202 23.5078 30.9951C26.0329 30.9951 27.9023 30.1854 29.1158 28.5662C30.3034 27.0278 30.9452 25.1339 30.9389 23.1861C30.9389 20.8027 30.2168 18.9648 28.7725 17.6725C27.3518 16.3804 25.4948 15.6819 23.5799 15.7195C22.2695 15.6864 20.9718 15.9858 19.8067 16.5901C18.7443 17.1703 17.8254 17.9836 17.1181 18.9697L13.4256 18.7549L16.0046 0.37439H33.6016V4.51828H19.1778L17.7354 13.9958C18.4255 13.4509 19.1804 12.9947 19.9826 12.6377C21.3768 12.0888 22.8648 11.8215 24.3617 11.8513C27.4715 11.8513 30.1072 12.8593 32.2688 14.8751C34.4304 16.8909 35.5113 19.4465 35.5113 22.5419C35.5521 25.6466 34.4995 28.6657 32.54 31.0647C30.5745 33.5255 27.4205 34.7559 23.078 34.7559C20.4469 34.7981 17.874 33.9748 15.7507 32.4112C13.6352 30.8461 12.4486 28.4453 12.1909 25.2087H16.619Z" fill="white"/>
<path d="M57.8683 5.07244H39.1C38.1827 5.07244 37.4355 4.07129 37.4355 2.83799C37.4355 1.60469 38.1827 0.606445 39.1 0.606445H57.8683C58.7885 0.606445 59.5328 1.60469 59.5328 2.83799C59.5328 4.06259 58.7885 5.07244 57.8683 5.07244Z" fill="white"/>
<path d="M56.2757 24.6921H41.5952C40.6779 24.6921 39.9336 23.6938 39.9336 22.4605C39.9336 21.2272 40.6779 20.2261 41.5952 20.2261H56.2757C57.196 20.2261 57.9402 21.2272 57.9402 22.4605C57.9402 23.6938 57.196 24.6921 56.2757 24.6921Z" fill="white"/>
<path d="M75.4911 14.8809H56.7229C55.8055 14.8809 55.0613 13.8827 55.0613 12.6494C55.0613 11.4161 55.8055 10.4149 56.7229 10.4149H75.4911C76.4113 10.4149 77.1556 11.4161 77.1556 12.6494C77.1556 13.8827 76.4113 14.8809 75.4911 14.8809Z" fill="white"/>
<path d="M70.4573 5.07244H63.6926C62.7723 5.07244 62.0281 4.07129 62.0281 2.83799C62.0281 1.60469 62.7723 0.606445 63.6926 0.606445H70.4573C71.3776 0.606445 72.1218 1.60469 72.1218 2.83799C72.1189 4.06259 71.3776 5.07244 70.4573 5.07244Z" fill="#47D4E9"/>
<path d="M71.288 24.6921H62.1001C61.1798 24.6921 60.4355 23.6938 60.4355 22.4605C60.4355 21.2272 61.1798 20.2261 62.1001 20.2261H71.288C72.2082 20.2261 72.9525 21.2272 72.9525 22.4605C72.9525 23.6938 72.2082 24.6921 71.288 24.6921Z" fill="#47D4E9"/>
<path d="M50.9016 14.8809H46.3581C45.4408 14.8809 44.6936 13.8827 44.6936 12.6494C44.6936 11.4161 45.4408 10.4149 46.3581 10.4149H50.9016C51.8189 10.4149 52.5632 11.4161 52.5632 12.6494C52.5632 13.8827 51.8189 14.8809 50.9016 14.8809Z" fill="#47D4E9"/>
<path d="M75.4911 34.5324H58.7595C57.8422 34.5324 57.0979 33.5313 57.0979 32.298C57.0979 31.0647 57.8422 30.0664 58.7595 30.0664H75.4911C76.4113 30.0664 77.1556 31.0647 77.1556 32.298C77.1556 33.5255 76.4113 34.5324 75.4911 34.5324Z" fill="white"/>
<path d="M52.9498 34.5324H46.3581C45.4408 34.5324 44.6936 33.5313 44.6936 32.298C44.6936 31.0647 45.4408 30.0664 46.3581 30.0664H52.9498C53.8671 30.0664 54.6114 31.0647 54.6114 32.298C54.6114 33.5255 53.8671 34.5324 52.9498 34.5324Z" fill="#47D4E9"/>
<path d="M100.935 30.6004C101.039 30.7197 101.151 30.8322 101.269 30.937C101.795 31.3544 102.406 31.6514 103.058 31.8076V30.5917L100.935 30.6004Z" fill="#253252"/>
<path d="M97.8479 33.4442C97.0353 32.6561 96.4271 31.6796 96.0766 30.6003H86.1473V0.455566H81.6384V34.6775H99.5614C98.9328 34.3538 98.3553 33.9382 97.8479 33.4442Z" fill="white"/>
<path d="M143.84 26.4535C143.961 27.8522 144.302 28.924 144.864 29.6688C145.893 31.023 147.68 31.7001 150.227 31.7001C151.627 31.7296 153.009 31.3787 154.228 30.6845C155.382 30.0112 155.959 28.9675 155.959 27.5533C155.975 27.0563 155.854 26.5645 155.609 26.1327C155.364 25.7008 155.005 25.3457 154.571 25.107C153.981 24.7646 152.814 24.368 151.072 23.9173L147.821 23.0786C145.744 22.5505 144.213 21.9604 143.228 21.3085C141.47 20.1748 140.591 18.6059 140.591 16.6016C140.591 14.2414 141.421 12.331 143.081 10.8704C144.741 9.40978 146.973 8.68044 149.777 8.68238C153.442 8.68238 156.085 9.78509 157.707 11.9905C158.69 13.2869 159.21 14.8785 159.184 16.5088H155.318C155.243 15.5717 154.902 14.6761 154.334 13.929C153.394 12.8263 151.765 12.2749 149.448 12.2749C147.909 12.2749 146.739 12.5777 145.937 13.1832C145.558 13.4549 145.252 13.8156 145.043 14.2339C144.835 14.6522 144.732 15.1154 144.743 15.5831C144.743 16.6722 145.266 17.5428 146.312 18.1948C147.148 18.6746 148.053 19.0211 148.995 19.222L151.698 19.8953C154.638 20.6265 156.609 21.3336 157.609 22.0165C159.197 23.0864 159.992 24.7714 159.994 27.0716C160.003 28.1505 159.788 29.2193 159.363 30.21C158.939 31.2007 158.314 32.0916 157.528 32.826C155.884 34.4434 153.383 35.2511 150.027 35.2491C146.408 35.2491 143.844 34.4066 142.334 32.7216C140.824 31.0366 140.016 28.9472 139.911 26.4535H143.84Z" fill="white"/>
<path d="M118.474 0H122.452V12.4172C123.294 11.2663 124.391 10.3292 125.657 9.68068C126.91 9.04918 128.294 8.72595 129.696 8.73757C132.726 8.73757 135.185 9.80159 137.072 11.9296C138.959 14.0577 139.905 17.2101 139.91 21.3869C139.91 25.3334 138.979 28.6106 137.115 31.2185C135.252 33.8263 132.668 35.1312 129.364 35.1331C127.514 35.1331 125.953 34.6746 124.682 33.7576C123.74 33.0209 122.919 32.1395 122.25 31.1459V34.338H118.474V0ZM134.078 28.7286C135.178 26.9275 135.727 24.5509 135.725 21.5987C135.725 18.9754 135.176 16.8009 134.078 15.0753C132.979 13.3496 131.366 12.4839 129.237 12.4781C128.319 12.4753 127.41 12.6622 126.566 13.027C125.723 13.3919 124.962 13.9271 124.333 14.5994C122.931 16.0116 122.23 18.3409 122.23 21.5871C122.23 23.9318 122.518 25.8345 123.095 27.2951C124.172 30.0461 126.18 31.4206 129.119 31.4187C131.326 31.4245 132.979 30.5278 134.078 28.7286Z" fill="white"/>
<path d="M111.548 18.6997C112.488 18.5779 113.117 18.1745 113.434 17.4896C113.642 16.9806 113.736 16.4316 113.708 15.882C113.708 14.4543 113.211 13.4173 112.217 12.7712C111.223 12.125 109.802 11.8029 107.956 11.8049C105.818 11.8049 104.302 12.3949 103.41 13.575C102.91 14.2289 102.584 15.1962 102.432 16.4769H98.6153C98.6903 13.4009 99.6634 11.2612 101.535 10.0579C103.485 8.83195 105.749 8.2047 108.048 8.25295C110.91 8.25295 113.235 8.81205 115.024 9.93024C116.812 11.0484 117.699 12.7896 117.683 15.1536V29.5296C117.667 29.8971 117.759 30.2613 117.946 30.5771C118.119 30.8412 118.488 30.9718 119.048 30.9718C119.229 30.9718 119.434 30.9602 119.662 30.937C119.891 30.9138 120.134 30.8789 120.389 30.8325V33.952C119.916 34.0989 119.435 34.2162 118.947 34.3032C118.494 34.3547 118.038 34.378 117.583 34.3728C116.173 34.3728 115.15 33.8601 114.513 32.8348C114.127 32.1213 113.887 31.3366 113.809 30.5278C112.842 31.7521 111.615 32.7436 110.218 33.4297C108.625 34.2616 106.854 34.6862 105.06 34.6659C102.8 34.6659 100.955 33.9627 99.524 32.5562C98.8188 31.8758 98.2624 31.055 97.8904 30.1461C97.5184 29.2372 97.3388 28.2603 97.3633 27.2777C97.3633 24.9562 98.0681 23.1628 99.4778 21.8976C100.887 20.6324 102.737 19.8479 105.025 19.5442L111.548 18.6997ZM102.934 30.0461C103.802 30.7481 104.889 31.12 106.003 31.0966C107.463 31.0949 108.901 30.7427 110.198 30.0693C112.471 28.9376 113.607 27.0813 113.607 24.5006V21.1257C113.007 21.4928 112.356 21.7676 111.675 21.9411C110.917 22.1509 110.146 22.306 109.367 22.4054L106.889 22.7305C105.404 22.9239 104.291 23.2431 103.548 23.6881C102.29 24.4174 101.662 25.5782 101.662 27.1703C101.634 27.7165 101.735 28.2614 101.956 28.7611C102.177 29.2607 102.512 29.7009 102.934 30.0461Z" fill="white"/>
</svg>
