<svg width="49" height="49" viewBox="0 0 49 49" fill="none" xmlns="http://www.w3.org/2000/svg">
<g clip-path="url(#clip0_28_1308)">
<path d="M47.6314 1.89493C47.5262 1.65568 47.3348 1.46427 47.1051 1.36857C46.9806 1.31114 34.7306 -3.83768 24.6531 6.23029C22.7295 8.15392 20.8728 10.4221 19.1693 12.8147L16.8437 12.2787C13.3314 11.4652 9.71385 12.4988 7.15858 15.0445L0.813464 21.3992C-0.870911 23.0836 0.210535 25.9451 2.55526 26.127L11.4939 26.8447C11.1015 27.8879 10.7666 28.9119 10.5752 29.5914C10.4029 30.1943 10.4316 30.8164 10.6135 31.3906C8.99608 31.8309 7.52225 32.6348 6.68964 33.4674C4.85214 35.2953 3.21561 43.3057 2.90936 44.8943C2.77538 45.66 3.45487 46.2438 4.10565 46.0906C5.69432 45.7748 13.7047 44.1383 15.5326 42.3104C16.4035 41.4395 17.1883 39.9465 17.6189 38.3865C18.2314 38.5779 18.8535 38.5779 19.4181 38.4152H19.4277C20.1072 38.2238 21.1025 37.908 22.1648 37.4965L22.8826 46.4352C23.0644 48.7799 25.9355 49.8518 27.6103 48.177L33.965 41.8223C36.5107 39.2766 37.5539 35.6494 36.7308 32.1371L36.1949 29.8115C38.5875 28.108 40.8556 26.2514 42.7793 24.3277C52.8472 14.2693 47.6889 2.01935 47.6314 1.89493ZM2.26815 22.8443L8.61327 16.4897C10.6709 14.432 13.5803 13.609 16.3844 14.2693L17.9252 14.6234C15.6379 18.0592 13.7047 21.6576 12.3074 24.8541L2.71796 24.0885C2.09589 24.0311 1.82792 23.275 2.26815 22.8443ZM14.0875 40.8748C13.1974 41.7649 8.78553 42.9994 5.22538 43.7842C6.00057 40.2145 7.23514 35.8121 8.13475 34.9221C8.90995 34.1373 10.4221 33.4578 11.8959 33.1899L15.8197 37.1137C15.8101 37.152 15.8101 37.1902 15.8006 37.2381C15.5135 38.6449 14.8148 40.1475 14.0875 40.8748ZM17.7625 36.1567L12.8433 31.2375C12.5562 30.9504 12.4414 30.5197 12.5467 30.1369C12.6328 29.8402 12.7955 29.2852 13.006 28.6631L20.3369 35.994C19.8967 36.1471 19.3129 36.3289 18.8631 36.4533C18.4803 36.5682 18.0592 36.4533 17.7625 36.1567ZM34.7306 32.6156C35.3814 35.4389 34.5584 38.3387 32.5103 40.3867L26.1556 46.7414C25.7154 47.1817 24.9689 46.9041 24.9115 46.2916L24.1459 36.7022C27.3424 35.3145 30.9408 33.3717 34.3765 31.0844L34.7306 32.6156ZM22.4328 35.1996L13.7908 26.5576C16.2312 20.5953 20.892 12.8721 26.0887 7.6754C32.0223 1.74181 39.8221 0.851769 45.8992 3.09122C46.617 5.10099 49.4689 14.7574 41.315 22.9113C36.1183 28.108 28.3951 32.7688 22.4328 35.1996Z" fill="white"/>
<path d="M29.9167 9.13008C27.17 11.8768 27.17 16.327 29.9167 19.0832C32.6634 21.8299 37.1136 21.8299 39.8698 19.0832C42.6165 16.3365 42.6165 11.8768 39.8698 9.13008C37.1136 6.3834 32.6634 6.3834 29.9167 9.13008ZM38.4247 17.6381C36.4724 19.5904 33.3142 19.5904 31.3618 17.6381C29.4095 15.6857 29.4095 12.5275 31.3618 10.5752C33.3142 8.62285 36.4724 8.62285 38.4247 10.5752C40.3675 12.5275 40.3675 15.6953 38.4247 17.6381Z" fill="white"/>
</g>
<defs>
<clipPath id="clip0_28_1308">
<rect width="49" height="49" fill="white"/>
</clipPath>
</defs>
</svg>
