<svg width="73" height="71" viewBox="0 0 73 71" fill="none" xmlns="http://www.w3.org/2000/svg">
<path d="M59.708 10.7979C59.3546 10.5199 58.9417 10.3224 58.4996 10.2201C58.0574 10.1177 57.5973 10.1129 57.153 10.2063C53.9028 10.8688 50.5476 10.8772 47.2939 10.2311C44.0402 9.58492 40.9569 8.29788 38.2338 6.44917C37.7247 6.10563 37.1198 5.92154 36.5001 5.92154C35.8804 5.92154 35.2755 6.10563 34.7663 6.44917C32.0433 8.29788 28.96 9.58492 25.7063 10.2311C22.4526 10.8772 19.0974 10.8688 15.8472 10.2063C15.4029 10.1129 14.9428 10.1177 14.5006 10.2201C14.0585 10.3224 13.6455 10.5199 13.2922 10.7979C12.9393 11.0764 12.655 11.4282 12.4603 11.8275C12.2655 12.2268 12.1652 12.6635 12.1668 13.1054V35.145C12.1641 39.3865 13.2033 43.5673 15.1979 47.3391C17.1925 51.111 20.0848 54.3648 23.6338 56.8296L34.7359 64.5213C35.2511 64.878 35.8677 65.0697 36.5001 65.0697C37.1325 65.0697 37.7491 64.878 38.2643 64.5213L49.3663 56.8296C52.9154 54.3648 55.8077 51.111 57.8023 47.3391C59.7969 43.5673 60.8361 39.3865 60.8334 35.145V13.1054C60.835 12.6635 60.7347 12.2268 60.5399 11.8275C60.3452 11.4282 60.0609 11.0764 59.708 10.7979ZM54.7501 35.145C54.7524 38.4428 53.9449 41.6935 52.3948 44.6265C50.8446 47.5595 48.5967 50.0901 45.838 52.0075L36.5001 58.4863L27.1622 52.0075C24.4035 50.0901 22.1556 47.5595 20.6054 44.6265C19.0553 41.6935 18.2478 38.4428 18.2501 35.145V16.5075C24.6267 17.0383 31.0131 15.5994 36.5001 12.3954C41.9871 15.5994 48.3735 17.0383 54.7501 16.5075V35.145ZM41.1843 28.3704L33.0022 36.3579L30.2951 33.6954C29.7223 33.1384 28.9455 32.8254 28.1355 32.8254C27.3255 32.8254 26.5487 33.1384 25.9759 33.6954C25.4032 34.2525 25.0814 35.008 25.0814 35.7958C25.0814 36.5837 25.4032 37.3392 25.9759 37.8963L30.8426 42.6296C31.1254 42.9069 31.4618 43.127 31.8324 43.2771C32.2031 43.4273 32.6006 43.5047 33.0022 43.5047C33.4037 43.5047 33.8013 43.4273 34.1719 43.2771C34.5426 43.127 34.879 42.9069 35.1618 42.6296L45.6251 32.5417C46.1979 31.9846 46.5196 31.2291 46.5196 30.4413C46.5196 29.6534 46.1979 28.8979 45.6251 28.3408C45.0523 27.7838 44.2755 27.4708 43.4655 27.4708C42.6555 27.4708 41.8787 27.7838 41.3059 28.3408L41.1843 28.3704Z" fill="white"/>
</svg>
